<svg width="80" height="80" viewBox="0 0 80 80" fill="none" xmlns="http://www.w3.org/2000/svg">
<rect width="80" height="80" rx="12" fill="#E0E0E0"/>
<circle cx="40" cy="40" r="20" fill="#4285F4"/>
<circle cx="40" cy="40" r="10" fill="white"/>
<path d="M40 20C40 20 55 25 55 40C55 55 40 60 40 60V20Z" fill="#34A853"/>
<path d="M40 20C40 20 25 25 25 40C25 55 40 60 40 60V20Z" fill="#FBBC05" transform="rotate(120 40 40)"/>
<path d="M40 20C40 20 55 25 55 40C55 55 40 60 40 60V20Z" fill="#EA4335" transform="rotate(-120 40 40)"/>
<text x="50%" y="90%" dominant-baseline="middle" text-anchor="middle" font-family="Arial, sans-serif" font-size="10" fill="#555555">Chrome</text>
</svg>
